<svg fill="none" height="63" viewBox="0 0 336 63" width="336" xmlns="http://www.w3.org/2000/svg"><g fill="#3dc17a"><path d="m134.502 21.9149h-13.771l-10.619 17.7534v-36.08758h-12.112v58.07198h12.112v-18.8319l10.204 18.8319h14.02l-12.444-21.2377z"/><path d="m138.714 61.6527h12.112v-21.4866c0-6.0561 1.742-9.1256 5.973-9.1256 3.733 0 5.227 2.4888 5.227 7.9641v22.6481h12.278v-25.9665c0-9.8722-4.397-14.8498-12.195-14.8498-5.227 0-9.126 2.2399-11.283 6.7198v-5.6413h-12.112z"/><path d="m197.66 62.8142c12.029 0 19.495-8.2131 19.495-21.0719s-7.466-21.0718-19.495-21.0718c-12.03 0-19.496 8.213-19.496 21.0718s7.466 21.0719 19.496 21.0719zm0-10.2871c-4.729 0-7.467-3.7332-7.467-10.7848s2.738-10.7848 7.467-10.7848c4.728 0 7.466 3.7332 7.466 10.7848s-2.738 10.7848-7.466 10.7848z"/><path d="m216.108 61.6527h12.942l6.056-12.2781 6.139 12.2781h12.859l-11.947-20.2422 11.864-19.4956h-12.859l-6.056 11.6144-5.973-11.6144h-12.942l11.863 19.4956z"/><path d="m263.451 18.0158c4.314 0 7.633-3.1525 7.633-7.4664 0-4.39692-3.319-7.5494-7.633-7.5494s-7.549 3.15248-7.549 7.5494c0 4.3139 3.235 7.4664 7.549 7.4664zm-6.056 43.6369h12.112v-39.7378h-12.112z"/><path d="m294.743 51.7805c-2.987 0-4.314-1.6592-4.314-5.4754v-15.0157h6.471v-9.3745h-6.471v-11.8633h-12.112v11.8633h-5.061v9.3745h5.061v18.2512c0 8.5448 5.226 12.7758 12.527 12.7758 2.323 0 4.314-.2489 6.388-.6637v-10.0381c-1.162.0829-1.825.1659-2.489.1659z"/><path d="m335.915 39.2535c0-11.0337-6.222-18.583-17.753-18.583-11.947 0-18.915 7.8812-18.915 21.2377 0 13.3566 6.885 20.906 19.246 20.906 9.873 0 15.763-4.8947 16.841-13.1907h-10.95c-.664 2.6547-2.489 4.0651-5.974 4.0651-4.728 0-7.134-3.3184-7.3-8.7108h24.473c.249-1.9911.332-4.314.332-5.7243zm-24.805-1.9081c.083-5.5583 2.572-8.5448 6.969-8.5448 4.065 0 6.305 2.8206 6.305 8.5448z"/><path d="m81.6667 41.0833c0-9.6412-6.7111-17.77-15.6906-19.8495-2.174-11.90973-12.5714-20.9838-25.1428-20.9838-14.0837 0-25.5208 11.4371-25.5208 25.5208v.1891c-8.69599 1.2288-15.3125 8.696-15.3125 17.6755 0 9.8303 8.03434 17.8646 17.8646 17.8646h43.3854c11.2481 0 20.4167-9.1686 20.4167-20.4167z"/></g><path d="m17.6144 52.0123c.5226 0 .9408-.4182.9408-.9408v-4.7038h4.7038c.5227 0 .9408-.4182.9408-.9408v-4.7039h5.2265c.2613 0 .5226-.1045.6794-.2613l6.2195-6.2195c1.5157.5749 3.1359.8362 4.8084.8362 7.7875 0 14.1115-6.324 14.1115-14.1115s-6.324-14.11151-14.1115-14.11151-14.1115 6.32401-14.1115 14.11151c0 1.6725.2613 3.2927.8362 4.8084l-17.5087 17.5087c-.1568.1568-.2613.4181-.2613.6795v7.108c0 .5226.4181.9408.9407.9408zm26.3415-38.1011c2.3519 0 4.2335 1.8815 4.2335 4.2334s-1.8816 4.2335-4.2335 4.2335-4.2335-1.8816-4.2335-4.2335 1.8816-4.2334 4.2335-4.2334z" fill="#fff"/></svg>